<?xml version="1.0" encoding="UTF-8" standalone="no"?>
<!DOCTYPE svg PUBLIC "-//W3C//DTD SVG 1.1//EN" "http://www.w3.org/Graphics/SVG/1.1/DTD/svg11.dtd">
<svg width="100%" height="100%" viewBox="0 0 24 24" version="1.1" xmlns="http://www.w3.org/2000/svg" xmlns:xlink="http://www.w3.org/1999/xlink" xml:space="preserve" xmlns:serif="http://www.serif.com/" style="fill-rule:evenodd;clip-rule:evenodd;stroke-linejoin:round;stroke-miterlimit:2;">
    <g transform="matrix(0.0349343,0,0,0.0349343,-55.5414,-28.6416)">
        <path d="M1878.62,1496.58C1719.5,1470.41 1597.95,1332.09 1597.95,1165.6C1597.95,980.47 1748.25,830.166 1933.38,830.166C2118.51,830.166 2268.82,980.47 2268.82,1165.6C2268.82,1331.86 2147.6,1470.03 1988.8,1496.47L1988.8,1466.79C2131.38,1440.68 2239.59,1315.68 2239.59,1165.6C2239.59,996.604 2102.38,859.399 1933.38,859.399C1764.39,859.399 1627.18,996.604 1627.18,1165.6C1627.18,1315.91 1735.72,1441.07 1878.62,1466.91L1878.62,1496.58ZM1878.62,1400.68C1771.77,1375.85 1692.06,1279.96 1692.06,1165.6C1692.06,1032.41 1800.19,924.274 1933.38,924.274C2066.57,924.274 2174.71,1032.41 2174.71,1165.6C2174.71,1279.73 2095.32,1375.46 1988.8,1400.53L1988.8,1370.37C2079.02,1345.98 2145.48,1263.49 2145.48,1165.6C2145.48,1048.54 2050.44,953.507 1933.38,953.507C1816.33,953.507 1721.29,1048.54 1721.29,1165.6C1721.29,1263.73 1788.07,1346.38 1878.62,1370.55L1878.62,1400.68ZM1878.62,1304.01C1823.55,1282.18 1784.56,1228.41 1784.56,1165.6C1784.56,1083.46 1851.24,1016.77 1933.38,1016.77C2015.52,1016.77 2082.21,1083.46 2082.21,1165.6C2082.21,1228.16 2043.53,1281.76 1988.8,1303.75L1988.8,1271.59C2026.93,1251.59 2052.98,1211.62 2052.98,1165.6C2052.98,1099.6 1999.39,1046.01 1933.38,1046.01C1867.38,1046.01 1813.79,1099.6 1813.79,1165.6C1813.79,1211.88 1840.13,1252.05 1878.62,1271.93L1878.62,1304.01ZM1933.38,1109.82C1964.17,1109.82 1989.16,1134.82 1989.16,1165.6C1989.16,1196.39 1964.17,1221.38 1933.38,1221.38C1902.6,1221.38 1877.6,1196.39 1877.6,1165.6C1877.6,1134.82 1902.6,1109.82 1933.38,1109.82Z" style="fill:rgb(92,111,138);"/>
    </g>
</svg>
