<?xml version="1.0" encoding="UTF-8" standalone="no"?>
<!DOCTYPE svg PUBLIC "-//W3C//DTD SVG 1.1//EN" "http://www.w3.org/Graphics/SVG/1.1/DTD/svg11.dtd">
<svg width="100%" height="100%" viewBox="0 0 24 24" version="1.1" xmlns="http://www.w3.org/2000/svg" xmlns:xlink="http://www.w3.org/1999/xlink" xml:space="preserve" xmlns:serif="http://www.serif.com/" style="fill-rule:evenodd;clip-rule:evenodd;stroke-linejoin:round;stroke-miterlimit:2;">
    <g transform="matrix(1.09255,0,0,1.09255,-0.61419,-0.557138)">
        <path d="M11.546,1.337C17.151,1.337 21.702,5.888 21.702,11.493C21.702,17.099 17.151,21.65 11.546,21.65C5.94,21.65 1.389,17.099 1.389,11.493C1.389,5.888 5.94,1.337 11.546,1.337ZM10.288,13.666C10.735,14.248 11.352,14.54 12.138,14.54C12.878,14.54 13.491,14.29 13.975,13.792C14.46,13.293 14.702,12.697 14.702,12.003C14.702,11.141 14.3,10.526 13.495,10.158C13.924,9.994 14.274,9.743 14.544,9.407C14.814,9.071 14.949,8.687 14.949,8.254C14.949,7.757 14.757,7.325 14.375,6.959C13.992,6.593 13.445,6.409 12.734,6.409C11.929,6.409 11.274,6.652 10.768,7.136C10.262,7.62 9.882,8.454 9.628,9.638L8.143,16.578L9.666,16.578L10.288,13.666ZM11.8,9.445L11.532,10.619C11.611,10.616 11.672,10.614 11.715,10.614C12.741,10.614 13.254,11.043 13.254,11.901C13.254,12.398 13.108,12.773 12.817,13.025C12.525,13.277 12.221,13.403 11.902,13.403C11.566,13.403 11.283,13.287 11.052,13.057C10.822,12.826 10.706,12.491 10.706,12.051C10.706,11.819 10.744,11.524 10.819,11.166L11.162,9.595C11.266,9.112 11.373,8.744 11.484,8.49C11.595,8.236 11.76,8.03 11.98,7.871C12.2,7.712 12.449,7.632 12.728,7.632C12.953,7.632 13.137,7.698 13.278,7.831C13.419,7.963 13.49,8.124 13.49,8.313C13.49,8.592 13.372,8.851 13.136,9.091C12.9,9.33 12.53,9.45 12.026,9.45C11.983,9.45 11.908,9.448 11.8,9.445Z" style="fill:rgb(92,111,138);"/>
    </g>
</svg>
