<?xml version="1.0" encoding="UTF-8" standalone="no"?>
<!DOCTYPE svg PUBLIC "-//W3C//DTD SVG 1.1//EN" "http://www.w3.org/Graphics/SVG/1.1/DTD/svg11.dtd">
<svg width="100%" height="100%" viewBox="0 0 24 24" version="1.1" xmlns="http://www.w3.org/2000/svg" xmlns:xlink="http://www.w3.org/1999/xlink" xml:space="preserve" xmlns:serif="http://www.serif.com/" style="fill-rule:evenodd;clip-rule:evenodd;stroke-linejoin:round;stroke-miterlimit:2;">
    <path d="M13.744,8C13.744,8 15.266,0 10.409,0L2,0L2,24L22,24L22,11C22,7.581 16.753,7.255 13.744,8ZM18,19L6,19L6,18L18,18L18,19ZM18,16L6,16L6,15L18,15L18,16ZM18,13L6,13L6,12L18,12L18,13ZM14.568,0.075C16.77,1.249 20.506,4.958 22,6.956C20.714,6.056 17.956,5.299 15.909,5.777C16.131,4.309 15.724,1.243 14.568,0.075Z" style="fill:rgb(92,111,138);fill-rule:nonzero;"/>
</svg>
