<?xml version="1.0" encoding="UTF-8" standalone="no"?>
<!DOCTYPE svg PUBLIC "-//W3C//DTD SVG 1.1//EN" "http://www.w3.org/Graphics/SVG/1.1/DTD/svg11.dtd">
<svg width="100%" height="100%" viewBox="0 0 24 24" version="1.1" xmlns="http://www.w3.org/2000/svg" xmlns:xlink="http://www.w3.org/1999/xlink" xml:space="preserve" xmlns:serif="http://www.serif.com/" style="fill-rule:evenodd;clip-rule:evenodd;stroke-linejoin:round;stroke-miterlimit:2;">
    <path d="M12,0C5.373,0 0,5.373 0,12C0,18.627 5.373,24 12,24C18.627,24 24,18.627 24,12C24,5.373 18.627,0 12,0ZM12,22C8.877,22 6.086,20.559 4.251,18.31C4.51,17.722 5.034,17.315 6.118,17.064C8.362,16.546 10.577,16.083 9.511,14.119C6.356,8.299 8.612,5 12,5C15.322,5 17.634,8.177 14.489,14.119C13.454,16.071 15.589,16.535 17.882,17.064C18.964,17.314 19.492,17.719 19.753,18.305C17.917,20.558 15.125,22 12,22Z" style="fill:rgb(92,111,138);fill-rule:nonzero;"/>
</svg>
