<?xml version="1.0" encoding="UTF-8" standalone="no"?>
<!DOCTYPE svg PUBLIC "-//W3C//DTD SVG 1.1//EN" "http://www.w3.org/Graphics/SVG/1.1/DTD/svg11.dtd">
<svg width="100%" height="100%" viewBox="0 0 24 24" version="1.1" xmlns="http://www.w3.org/2000/svg" xmlns:xlink="http://www.w3.org/1999/xlink" xml:space="preserve" xmlns:serif="http://www.serif.com/" style="fill-rule:evenodd;clip-rule:evenodd;stroke-linejoin:round;stroke-miterlimit:2;">
    <path d="M12,0C18.623,0 24,5.377 24,12C24,18.623 18.623,24 12,24C5.377,24 0,18.623 0,12C0,5.377 5.377,0 12,0M14.557,16L9.442,16C9.988,18.46 10.883,20.114 12,21.744C13.194,20.003 14.041,18.334 14.557,16M7.4,16L2.833,16C4.069,18.825 6.537,20.972 9.588,21.716C8.54,19.983 7.805,18.058 7.4,16M21.167,16L16.6,16C16.209,17.988 15.505,19.887 14.425,21.694C17.437,20.931 19.942,18.799 21.167,16M7.162,10L2.2,10C1.933,11.313 1.933,12.685 2.2,14L7.115,14C6.996,12.671 7.014,11.328 7.162,10M14.823,10L9.176,10C9.011,11.326 8.991,12.672 9.123,14L14.876,14C15.009,12.672 14.987,11.327 14.823,10M21.8,10L16.837,10C16.985,11.328 17.003,12.671 16.885,14L21.8,14C22.06,12.715 22.073,11.352 21.8,10M9.644,2.271C6.567,3.003 4.077,5.157 2.833,8L7.486,8C7.921,5.958 8.664,4.015 9.644,2.271M11.999,2.223C10.91,3.993 10.089,5.676 9.536,8L14.463,8C13.929,5.754 13.126,4.052 11.999,2.223M14.367,2.292C15.38,4.104 16.1,6.052 16.513,8L21.167,8C19.935,5.184 17.405,3.042 14.367,2.292" style="fill:rgb(92,111,138);"/>
</svg>
