<?xml version="1.0" encoding="UTF-8" standalone="no"?>
<!DOCTYPE svg PUBLIC "-//W3C//DTD SVG 1.1//EN" "http://www.w3.org/Graphics/SVG/1.1/DTD/svg11.dtd">
<svg width="100%" height="100%" viewBox="0 0 24 24" version="1.1" xmlns="http://www.w3.org/2000/svg" xmlns:xlink="http://www.w3.org/1999/xlink" xml:space="preserve" xmlns:serif="http://www.serif.com/" style="fill-rule:evenodd;clip-rule:evenodd;stroke-linejoin:round;stroke-miterlimit:2;">
    <g id="iconmonstr-weather-64.svg" transform="matrix(1,0,0,1,12,12)">
        <g id="iconmonstr-filter-down-lined.svg" transform="matrix(1,0,0,1,-12,-12)">
            <path d="M15.344,17.778C15.344,17.364 15.008,17.028 14.594,17.028L9.434,17.028C9.02,17.028 8.684,17.364 8.684,17.778C8.684,18.192 9.02,18.528 9.434,18.528L14.594,18.528C15.008,18.528 15.344,18.192 15.344,17.778ZM17.55,13.778C17.55,13.364 17.214,13.028 16.8,13.028L7.204,13.028C6.79,13.028 6.454,13.364 6.454,13.778C6.454,14.192 6.79,14.528 7.204,14.528L16.8,14.528C17.214,14.528 17.55,14.192 17.55,13.778ZM20,9.778C20,9.364 19.664,9.028 19.25,9.028L4.75,9.028C4.336,9.028 4,9.364 4,9.778C4,10.192 4.336,10.528 4.75,10.528L19.25,10.528C19.664,10.528 20,10.192 20,9.778ZM22,5.778C22,5.364 21.664,5.028 21.25,5.028L2.75,5.028C2.336,5.028 2,5.364 2,5.778C2,6.192 2.336,6.528 2.75,6.528L21.25,6.528C21.664,6.528 22,6.192 22,5.778Z" style="fill:rgb(92,111,138);fill-rule:nonzero;"/>
        </g>
        <g id="iconmonstr-filter-down-lined.svg1" serif:id="iconmonstr-filter-down-lined.svg">
        </g>
    </g>
</svg>
