<?xml version="1.0" encoding="UTF-8" standalone="no"?>
<!DOCTYPE svg PUBLIC "-//W3C//DTD SVG 1.1//EN" "http://www.w3.org/Graphics/SVG/1.1/DTD/svg11.dtd">
<svg width="100%" height="100%" viewBox="0 0 24 24" version="1.1" xmlns="http://www.w3.org/2000/svg" xmlns:xlink="http://www.w3.org/1999/xlink" xml:space="preserve" xmlns:serif="http://www.serif.com/" style="fill-rule:evenodd;clip-rule:evenodd;stroke-linejoin:round;stroke-miterlimit:2;">
    <path d="M23.334,11.96C22.621,11.234 22.462,10.131 22.941,9.233C23.283,8.593 23.307,7.832 23.005,7.171C22.704,6.511 22.112,6.029 21.404,5.869C20.413,5.644 19.682,4.802 19.601,3.788C19.542,3.065 19.15,2.41 18.539,2.018C17.93,1.625 17.172,1.54 16.489,1.789C15.533,2.136 14.463,1.821 13.847,1.013C13.407,0.437 12.723,0.098 11.997,0.098C11.272,0.098 10.588,0.437 10.148,1.013C9.535,1.822 8.465,2.137 7.509,1.79C6.827,1.542 6.069,1.627 5.459,2.019C4.849,2.411 4.456,3.066 4.398,3.789C4.316,4.803 3.586,5.646 2.595,5.87C1.887,6.03 1.295,6.512 0.994,7.172C0.693,7.832 0.717,8.594 1.059,9.233C1.538,10.13 1.379,11.234 0.667,11.96C0.158,12.477 -0.08,13.202 0.023,13.92C0.126,14.638 0.559,15.267 1.193,15.62C2.081,16.115 2.545,17.13 2.337,18.125C2.19,18.835 2.381,19.573 2.856,20.121C3.332,20.67 4.036,20.965 4.758,20.919C5.774,20.856 6.711,21.459 7.075,22.408C7.334,23.086 7.895,23.603 8.592,23.807C9.287,24.011 10.039,23.879 10.623,23.45C11.442,22.847 12.559,22.847 13.377,23.45C13.961,23.88 14.713,24.012 15.408,23.807C16.105,23.603 16.666,23.085 16.926,22.408C17.289,21.459 18.227,20.855 19.242,20.919C19.966,20.965 20.669,20.67 21.144,20.121C21.619,19.573 21.811,18.835 21.663,18.125C21.456,17.13 21.919,16.115 22.808,15.62C23.441,15.266 23.873,14.638 23.977,13.92C24.081,13.202 23.842,12.477 23.334,11.96ZM10.75,17.39L6.25,13.026L8.107,11.169L10.75,13.675L16.393,7.891L18.25,9.748L10.75,17.39Z" style="fill:rgb(92,111,138);fill-rule:nonzero;"/>
</svg>
