<?xml version="1.0" encoding="UTF-8" standalone="no"?>
<!DOCTYPE svg PUBLIC "-//W3C//DTD SVG 1.1//EN" "http://www.w3.org/Graphics/SVG/1.1/DTD/svg11.dtd">
<svg width="100%" height="100%" viewBox="0 0 24 24" version="1.1" xmlns="http://www.w3.org/2000/svg" xmlns:xlink="http://www.w3.org/1999/xlink" xml:space="preserve" xmlns:serif="http://www.serif.com/" style="fill-rule:evenodd;clip-rule:evenodd;stroke-linejoin:round;stroke-miterlimit:2;">
    <path d="M22,16.75C22,16.336 21.664,16 21.25,16L2.75,16C2.336,16 2,16.336 2,16.75C2,17.164 2.336,17.5 2.75,17.5L21.25,17.5C21.664,17.5 22,17.164 22,16.75ZM22,11.75C22,11.336 21.664,11 21.25,11L2.75,11C2.336,11 2,11.336 2,11.75C2,12.164 2.336,12.5 2.75,12.5L21.25,12.5C21.664,12.5 22,12.164 22,11.75ZM22,6.75C22,6.336 21.664,6 21.25,6L2.75,6C2.336,6 2,6.336 2,6.75C2,7.164 2.336,7.5 2.75,7.5L21.25,7.5C21.664,7.5 22,7.164 22,6.75Z" style="fill:rgb(17,24,39);fill-rule:nonzero;"/>
</svg>
