<?xml version="1.0" encoding="UTF-8" standalone="no"?>
<!DOCTYPE svg PUBLIC "-//W3C//DTD SVG 1.1//EN" "http://www.w3.org/Graphics/SVG/1.1/DTD/svg11.dtd">
<svg width="100%" height="100%" viewBox="0 0 24 24" version="1.1" xmlns="http://www.w3.org/2000/svg" xmlns:xlink="http://www.w3.org/1999/xlink" xml:space="preserve" xmlns:serif="http://www.serif.com/" style="fill-rule:evenodd;clip-rule:evenodd;stroke-linejoin:round;stroke-miterlimit:2;">
    <g id="Artboard1" transform="matrix(0.217336,0,0,0.428004,4.79827,-2.20936)">
        <rect x="-22.078" y="5.162" width="110.428" height="56.074" style="fill:none;"/>
        <g id="nostr-head.svg" transform="matrix(0.143477,0,0,0.0728563,33.1364,33.1991)">
            <g transform="matrix(1,0,0,1,-310,-310)">
                <path d="M620,270.227L620,597.655C620,609.968 610.081,619.961 597.859,619.961L332.161,619.961C319.938,619.961 310.02,609.968 310.02,597.655L310.02,536.678C311.23,461.931 319.079,390.332 335.558,357.759C345.438,338.168 361.722,327.506 380.427,321.802C415.768,311.102 477.779,318.419 504.099,317.16C504.099,317.16 583.605,320.346 583.605,274.987C583.605,238.48 548.07,241.352 548.07,241.352C508.902,242.374 479.068,239.699 459.738,232.028C427.365,219.203 426.272,195.678 426.155,187.81C424.554,96.934 291.549,86.037 174.359,108.579C46.235,133.127 175.765,318.143 175.765,565.121L175.765,598.088C175.531,610.204 165.807,620 153.702,620L22.142,620C9.919,620 0,610.008 0,597.694L0,31.393C0,19.08 9.919,9.088 22.142,9.088L145.813,9.088C158.036,9.088 167.955,19.08 167.955,31.393C167.955,49.687 188.378,59.876 203.139,49.215C247.617,17.113 304.709,0 368.595,0C511.714,0 619.922,84.031 619.922,270.227L620,270.227ZM382.419,203.782C382.419,177.424 361.214,156.062 335.051,156.062C308.887,156.062 287.683,177.424 287.683,203.782C287.683,230.14 308.887,251.501 335.051,251.501C361.214,251.501 382.419,230.14 382.419,203.782Z" style="fill:rgb(92,111,138);fill-rule:nonzero;"/>
            </g>
        </g>
    </g>
</svg>
